{"title":"Magic.Mike.XXL.2015.WEBRip.480p.x264.AAC-VYTO [P2PDL]","uid":12303242,"size":481962022,"categoryP":"video","categoryS":"movies","magnet":"?xt=urn:btih:d136bfdc07825653c8aff96f0376cd89e1b870b3&amp;dn=Magic.Mike.XXL.2015.WEBRip.480p.x264.AAC-VYTO+%5BP2PDL%5D&amp;tr=udp%3A%2F%2Ftracker.openbittorrent.com%3A80&amp;tr=udp%3A%2F%2Fopen.demonii.com%3A1337&amp;tr=udp%3A%2F%2Ftracker.coppersurfer.tk%3A6969&amp;tr=udp%3A%2F%2Fexodus.desync.com%3A6969","seeders":9,"leechers":10,"uploader":"ValidusVyto","files":7,"time":1440745394,"description":"____    ____ ____    ____ .___________.  ______   \n     /   /      /   / |           | /  __    \n    /   /      /   /  `---|  |----`|  |  |  | \n        /     _    _/       |  |     |  |  |  | \n       /        |  |         |  |     |  `--'  | \n    __/         |__|         |__|      ______/  \n                                                  \nPresenting Small Encodes with quality for years!\n                                                                                                   \n                                                                                                   \n\nMagic.Mike.XXL.2015.WEBRip.480p.x264.AAC-VYTO\n\n\nGenre: Comedy, Drama, Music &lt;a href=&quot;\nhttp://www.imdb.com/title/tt2268016/&quot; rel=&quot;nofollow&quot; target=&quot;_NEW&quot;&gt;\nhttp://www.imdb.com/title/tt2268016/&lt;/a&gt;\n\n\nGeneral\nFormat                         : MPEG-4\nFile size                      : 452 MiB\nDuration                       : 1h 55mn\nOverall bit rate               : 548 Kbps\n\nVideo\nFormat                         : AVC\nBit rate                       : 513 Kbps\nWidth                          : 720 pixels\nHeight                         : 304 pixels\nDisplay aspect ratio           : 2.35:1\nFrame rate                     : 23.976 fps\nBit depth                      : 8 bits\nStream size                    : 423 MiB (94%)\nWriting library                : x264 core 148 r2597\n\nAudio\nFormat                         : AAC\nBit rate mode                  : Variable\nBit rate                       : 32.0 Kbps\nChannel(s)                     : 2 channels \nChannel positions              : Front: L R\nSampling rate                  : 48.0 KHz \nStream size                    : 26.4 MiB (6%)\nLanguage                       : English\n\nSubtitle                       : Yes (English)\nSource                     \t   : 720p.WEB-DL\n\nScreenshots:\n &lt;a href=&quot;\nhttp://ititli.com/sF&quot; rel=&quot;nofollow&quot; target=&quot;_NEW&quot;&gt;\nhttp://ititli.com/sF&lt;/a&gt; &lt;a href=&quot;\nhttp://ititli.com/sJ&quot; rel=&quot;nofollow&quot; target=&quot;_NEW&quot;&gt;\nhttp://ititli.com/sJ&lt;/a&gt; &lt;a href=&quot;\nhttp://ititli.com/s5&quot; rel=&quot;nofollow&quot; target=&quot;_NEW&quot;&gt;\nhttp://ititli.com/s5&lt;/a&gt; &lt;a href=&quot;\nhttp://ititli.com/sB&quot; rel=&quot;nofollow&quot; target=&quot;_NEW&quot;&gt;\nhttp://ititli.com/sB&lt;/a&gt; &lt;a href=&quot;\nhttp://ititli.com/sN&quot; rel=&quot;nofollow&quot; target=&quot;_NEW&quot;&gt;\nhttp://ititli.com/sN&lt;/a&gt; &lt;a href=&quot;\nhttp://ititli.com/sP&quot; rel=&quot;nofollow&quot; target=&quot;_NEW&quot;&gt;\nhttp://ititli.com/sP&lt;/a&gt; &lt;a href=&quot;\nhttp://ititli.com/sf&quot; rel=&quot;nofollow&quot; target=&quot;_NEW&quot;&gt;\nhttp://ititli.com/sf&lt;/a&gt; &lt;a href=&quot;\nhttp://ititli.com/su&quot; rel=&quot;nofollow&quot; target=&quot;_NEW&quot;&gt;\nhttp://ititli.com/su&lt;/a&gt; &lt;a href=&quot;\nhttp://ititli.com/sv&quot; rel=&quot;nofollow&quot; target=&quot;_NEW&quot;&gt;\nhttp://ititli.com/sv&lt;/a&gt; &lt;a href=&quot;\nhttp://ititli.com/sR&quot; rel=&quot;nofollow&quot; target=&quot;_NEW&quot;&gt;\nhttp://ititli.com/sR&lt;/a&gt; &lt;a href=&quot;\nhttp://ititli.com/sy&quot; rel=&quot;nofollow&quot; target=&quot;_NEW&quot;&gt;\nhttp://ititli.com/sy&lt;/a&gt; &lt;a href=&quot;\nhttp://ititli.com/s3&quot; rel=&quot;nofollow&quot; target=&quot;_NEW&quot;&gt;\nhttp://ititli.com/s3&lt;/a&gt;\n\n----------------------------------------------------------------------------------------------------\n\n\nEncoder Notes: Looking For Early Access To Anything You Can Provide DVDScr, R5, DVDR, BluRay, Direct\nAudio, Music Releases and Seedboxes. If You Got anything to offer please contact us.\n\nSupport us by donating BC - 1FgwdzPsd1y25Gea8wP1qni35uGCtmkRCD","torrent":{"xt":"urn:btih:d136bfdc07825653c8aff96f0376cd89e1b870b3","amp;dn":"Magic.Mike.XXL.2015.WEBRip.480p.x264.AAC-VYTO+%5BP2PDL%5D","amp;tr":["udp%3A%2F%2Ftracker.openbittorrent.com%3A80","udp%3A%2F%2Fopen.demonii.com%3A1337","udp%3A%2F%2Ftracker.coppersurfer.tk%3A6969","udp%3A%2F%2Fexodus.desync.com%3A6969"],"infoHash":"d136bfdc07825653c8aff96f0376cd89e1b870b3","infoHashBuffer":{"type":"Buffer","data":[209,54,191,220,7,130,86,83,200,175,249,111,3,118,205,137,225,184,112,179]},"announce":[],"urlList":[]}}